<svg version="1.0" xmlns="http://www.w3.org/2000/svg" width="700" height="700" viewBox="0 0 700 700">
  <g transform="translate(0,700) scale(0.1,-0.1)" fill="#8b5cf6">
    <path d="M1200 6000 c-200 -50 -350 -200 -400 -400 -20 -80 -20 -4120 0 -4200 50 -200 200 -350 400 -400 80 -20 4120 -20 4200 0 200 50 350 200 400 400 20 80 20 4120 0 4200 -50 200 -200 350 -400 400 -80 20 -4120 20 -4200 0z m2300 -1500 c200 -50 400 -250 400 -500 0 -250 -200 -450 -400 -500 -200 -50 -400 50 -500 200 l-50 100 -50 -100 c-100 -150 -300 -250 -500 -200 -200 50 -400 250 -400 500 0 250 200 450 400 500 200 50 400 -50 500 -200 l50 -100 50 100 c100 150 300 250 500 200z"/>
  </g>
</svg>